/* XPM */
static char *_c54ab6c809049eefd06833e7d6c5adc1hGGTq1cbIC69EFX[] = {
/* columns rows colors chars-per-pixel */
"32 32 150 2 ",
"   c None",
".  c #1B241D",
"X  c #1E2921",
"o  c #173724",
"O  c #1F3325",
"+  c #133B26",
"@  c #1F302A",
"#  c #242B26",
"$  c #203325",
"%  c #2B352E",
"&  c #243C2C",
"*  c #293D2F",
"=  c #313C38",
"-  c #054C1F",
";  c #0A4323",
":  c #0D4C26",
">  c #154125",
",  c #184227",
"<  c #104C27",
"1  c #1E402B",
"2  c #124829",
"3  c #1B4F2C",
"4  c #005B25",
"5  c #0F562B",
"6  c #0F5D2E",
"7  c #14522D",
"8  c #115D2E",
"9  c #1F4B32",
"0  c #0F5E30",
"q  c #185633",
"w  c #145D32",
"e  c #195E35",
"r  c #185C38",
"t  c #25422E",
"y  c #234531",
"u  c #2C4236",
"i  c #274B35",
"p  c #2D4936",
"a  c #2F4F3C",
"s  c #38463B",
"d  c #304A3A",
"f  c #215537",
"g  c #26563B",
"h  c #2B573C",
"j  c #25583B",
"k  c #006426",
"l  c #0A612E",
"z  c #046C2F",
"x  c #0F6330",
"c  c #0C6D34",
"v  c #126433",
"b  c #186032",
"n  c #106F35",
"m  c #1D643A",
"M  c #136B39",
"N  c #1E6A3E",
"B  c #027331",
"V  c #0B7236",
"C  c #017C34",
"Z  c #0C7438",
"A  c #057F38",
"S  c #0D7C3B",
"D  c #1A7237",
"F  c #12723A",
"G  c #117C3B",
"H  c #20633B",
"J  c #3E4B42",
"K  c #315643",
"L  c #3F564A",
"P  c #187841",
"I  c #2A6D46",
"U  c #2F6F49",
"Y  c #356A4B",
"T  c #534C4E",
"R  c #4C5E57",
"E  c #5F5E5E",
"W  c #4F6758",
"Q  c #457C5C",
"!  c #6A6B6A",
"~  c #687B71",
"^  c #727473",
"/  c #048439",
"(  c #0C843D",
")  c #048B3C",
"_  c #0A893E",
"`  c #11813C",
"'  c #108A3B",
"]  c #02923E",
"[  c #14953E",
"{  c #0E8640",
"}  c #0B8D41",
"|  c #108341",
" . c #059441",
".. c #0B9344",
"X. c #059C45",
"o. c #0B9B47",
"O. c #099D49",
"+. c #169D48",
"@. c #03A247",
"#. c #06A44A",
"$. c #09A44B",
"%. c #06AB4D",
"&. c #09AA4D",
"*. c #14AC4B",
"=. c #19AA4B",
"-. c #07B14E",
";. c #07B754",
":. c #26A446",
">. c #29AD49",
",. c #22B44B",
"<. c #2BB34A",
"1. c #2BB84C",
"2. c #5D816C",
"3. c #61816F",
"4. c #6F877A",
"5. c #7C857D",
"6. c #778A7E",
"7. c #898989",
"8. c #8F908F",
"9. c #958B91",
"0. c #9FAEA4",
"q. c #AEABAD",
"w. c #B0B3B1",
"e. c #B9BDBC",
"r. c #BDC1BF",
"t. c #D3CACF",
"y. c #D8CFD5",
"u. c #D9D1D6",
"i. c #DAD6D8",
"p. c #DEDADC",
"a. c #E1DBDF",
"s. c #E4DEE2",
"d. c #E0E1E0",
"f. c #E9E2E7",
"g. c #EFEAED",
"h. c #F2EBEF",
"j. c #EFF1F0",
"k. c #F3F4F4",
"l. c #FFF7FC",
"z. c #F7F9F8",
"x. c #F6F9F8",
"c. c #F8FAF9",
"v. c #F9FBFA",
"b. c #F9FCFB",
"n. c #FFFAFD",
"m. c #FAFCFC",
"M. c #FBFCFC",
"N. c #FCFEFD",
"B. c #FDFEFD",
"V. c white",
/* pixels */
"                                                                ",
"                                                                ",
"                  $ S _ D @         * ; y                       ",
"                & } -.*.1.'       3 O.1.&.) i                   ",
"              2 / } $.#.=.,.r      .*.>.&.&.S h                 ",
"            y 4 1 F ) $.@.%.F   j %.$.*._ Z / k / L             ",
"              t u.r.N X.&.&.Z . 6 %.#.../ B 2.^ -               ",
"              q.V.M.u.Y ] %.( c } %.@./ Q w.M.k.T               ",
"              j.M.x.V.9.,  .#.@.@.( j 8.n.V.x.V.7.              ",
"            E v.v.x.x.k.s.~ ) %.U t.h.k.v.x.x.M.!               ",
"              d.V.V.m.V.V.4.) #.| 5.f.V.V.V.V.p.                ",
"              7.p.a.g.i.6.( ( G #.) H 3.0.e.w.W                 ",
"                F F I b z ( { { ( o.X.z B / C 7                 ",
"                8 &.[ X.o...&.%.$.O.$.$.+.=._                   ",
"                b <.*.&.o.} { ` _ } } ..:.*.&.q                 ",
"                 .&...S { o.( n ( $.O...( S ..M                 ",
"              d } V S O.#.%.o.O.O.$.#.#.%.} } h                 ",
"                / Z %.#.#.O.#.#.$.@.@.#.%.X.7                   ",
"        &       I #.%.O.o.#.#.@.#.$.$.$.} 7           s R       ",
"      & X.X.c &   c %.O.v O.#.#.O.@.%.o.} i     , ( $.X. .e     ",
"        V O.%.@.v # } %.S o.#.#.#.#.#.%.}     v #.%.o.#.X.u     ",
"        p V O.&.-.V V %.+.o.#.#.#.#.#.%.c X A %.&...x %.V       ",
"          v ( X.} %.P *.>.$.$.@.#.#.#.%.V } %.%. .x O. .J       ",
"            } P c %.A } >.=.$.$.#.O.#. .{ %.o.{ c O.#.f         ",
"            e &.Z @.$.S $.$.@.$.#.#.%...@.O.c } %.@.7           ",
"               .{ } o.o.} $.%.@.@.#.O.o.....} %.#.m             ",
"              q %.Z ( O.b O.$.$.%.$.G { { S $.%.l               ",
"            y { -.} n o.S { S ` o...G { } { ;.S %               ",
"      o v A X. .( ( : w < c ( X.v v ( S v v c 8 c ( 5 > o       ",
"    = + y h                 t g X @                             ",
"                                                                ",
"                                                                "
};
