/* XPM */
static char *d9ca8246494a48bba108ac746c90f7a5hhkHIxmpBrcN2iE9[] = {
/* columns rows colors chars-per-pixel */
"32 32 16 1 ",
"  c None",
". c black",
"X c gray1",
"o c gray4",
"O c gray6",
"+ c #131313",
"@ c #151515",
"# c #161616",
"$ c #191919",
"% c #252525",
"& c gray16",
"* c gray25",
"= c #464646",
"- c #494949",
"; c gray32",
": c #6D6D6D",
/* pixels */
"                                ",
"                                ",
"                                ",
" &&&&&&&&&&&&&&&&&&&&&&&&&&&&&& ",
" &:::::::::::$::::::::::::::::: ",
" &:;;;;;;;;;;$:;;;;;;;;;;;;;;;: ",
" &:;;;;;;;;;;$:;;;;;;;;;;;;;;;: ",
" &:;;;;;;;;;;$:;;;;;;;;;;;;;;;: ",
" &:;;;;;;;;;;$:;;;;;;;;;;;;;;;: ",
" &-----------$:---------------: ",
" &$$$$$$$$$$$$$$$$$$$$$$$$$$$$: ",
" &@=******************&@****&.: ",
" &@=******************&@****&.: ",
" &@=******************&@****&.: ",
" &@=******************&@****&.: ",
" &@&&&&&&&&&&&&&&&&&&&&@&&&&&.: ",
" &@@@@@@@@@@@@@+@@@@@@@@@@@@@.: ",
" &..+%%%%%%%%%%%@%%%%%%%%%%+..: ",
" &..+%%%%%%%%%%%@%%%%%%%%%%+..: ",
" &..+%%%%%%%%%%%@%%%%%%%%%%+..: ",
" &..+%%%%%%%%%%%@%%%%%%%%%%@..: ",
" &..++++++++++++@++++++++++@..: ",
" &...OOOO+OO+OO+O+OOO+OOOOo...: ",
" &...o@@@@O@@@@@@@@@@@@@O@o...: ",
" &...o@@@@+@@@$@@$@$@$@$O@o...: ",
" &...o$@@@O@@$@@@@@@@@@@+@o...: ",
" &...o@@@@+@@@$@@$@@@$@@O@o...: ",
" &...oooooOoooooooooooooooo...: ",
" &::::::::::::::::::::::::::::: ",
"                                ",
"                                ",
"                                "
};
