/* XPM */
static char *result[] = {
/* columns rows colors chars-per-pixel */
"32 32 167 2 ",
"   c #000000",
".  c #060708",
"X  c #070809",
"o  c #0A0B0C",
"O  c #0D0E12",
"+  c #0B1417",
"@  c #121416",
"#  c #16171D",
"$  c #15191C",
"%  c #181818",
"&  c #151621",
"*  c #171B21",
"=  c #1B1D24",
"-  c #1C1E2A",
";  c #1E2028",
":  c #1E292D",
">  c #22242D",
",  c #27282C",
"<  c #2B2C2E",
"1  c #242632",
"2  c #262833",
"3  c #282B36",
"4  c #27293B",
"5  c #2C2E3B",
"6  c #233237",
"7  c #2E313C",
"8  c #323232",
"9  c #30333D",
"0  c #30393F",
"q  c #3D3C3C",
"w  c #333544",
"e  c #363946",
"r  c #35374D",
"t  c #37394A",
"y  c #393B4A",
"u  c #3D3E52",
"i  c #3E3F5A",
"p  c #2E4046",
"a  c #3B474A",
"s  c #3E4A4F",
"d  c #3E4052",
"f  c #374950",
"g  c #384E55",
"h  c #394F58",
"j  c #36515C",
"k  c #3E505A",
"l  c #434343",
"z  c #4A4B4D",
"x  c #414355",
"c  c #44455B",
"v  c #474B5F",
"b  c #4B4D5D",
"n  c #41505C",
"m  c #48585F",
"M  c #535353",
"N  c #464860",
"B  c #4A4C65",
"V  c #445763",
"C  c #415B65",
"Z  c #4F5F65",
"A  c #4E506A",
"S  c #5E5F64",
"D  c #51546E",
"F  c #53586A",
"G  c #58596D",
"H  c #535571",
"J  c #575976",
"K  c #5A5D75",
"L  c #5A5C7B",
"P  c #46636E",
"I  c #49616C",
"U  c #52636C",
"Y  c #5A676C",
"T  c #56696F",
"R  c #516771",
"E  c #506A73",
"W  c #51707E",
"Q  c #656666",
"!  c #656868",
"~  c gray42",
"^  c #6B777C",
"/  c #737575",
"(  c #7A7B7B",
")  c #557987",
"_  c #597A87",
"`  c #5B7D8C",
"'  c #636782",
"]  c #656A82",
"[  c #696E87",
"{  c #627B83",
"}  c #6C708C",
"|  c #657E8A",
" . c #727793",
".. c #747893",
"X. c #797C97",
"o. c #767C98",
"O. c #5E8291",
"+. c #67818C",
"@. c #668E9D",
"#. c #728B94",
"$. c #658FA0",
"%. c #6F99A9",
"&. c #7C96A1",
"*. c #7C99A2",
"=. c #76A7BA",
"-. c #78AAB9",
";. c #7EB2C6",
":. c #848484",
">. c #838C8F",
",. c #9F9F9F",
"<. c #929292",
"1. c #8086A2",
"2. c #8389A5",
"3. c #809CA5",
"4. c #8BAAB6",
"5. c #8CACB8",
"6. c #90ACB5",
"7. c #96B6BF",
"8. c #A9A6A4",
"9. c #ACA8A6",
"0. c #ACACAC",
"q. c #A3A3A2",
"w. c #B7B7B6",
"e. c #BBBBBB",
"r. c #C0C0BE",
"t. c #81B3C6",
"y. c #87BDCF",
"u. c #97BCCA",
"i. c #83BBD1",
"p. c #8CC6DC",
"a. c #8EC8DE",
"s. c #9EC7D5",
"d. c #92C7DD",
"f. c #91C9DF",
"g. c #A3CDDF",
"h. c #8FCAE0",
"j. c #92CBE1",
"k. c #9BCFE2",
"l. c #95D0E7",
"z. c #96D3E9",
"x. c #9CD5EC",
"c. c #9CD9F1",
"v. c #A4D7ED",
"b. c #B3DAEC",
"n. c #A0DAF1",
"m. c #ACDEF2",
"M. c #A9E1F5",
"N. c #A3E1F9",
"B. c #ABE7FD",
"V. c #ADEAFF",
"C. c #BAE6F3",
"Z. c #B1E6FA",
"A. c #B5EBFE",
"S. c #B8E8F9",
"D. c #B2E2F5",
"F. c #DEDEDD",
"G. c #C0EDFC",
"H. c #C4F4FF",
"J. c #C8F5FF",
"K. c #CEFCFF",
"L. c #D0FEFF",
"P. c #ECECEC",
"I. c #E3E3E2",
"U. c #F0ECEB",
"Y. c #F4F4F4",
"T. c #F8F4F3",
"R. c #FEFEFE",
/* pixels */
"                                                                ",
"                                                                ",
"                      : f o                                     ",
"                    p z.N.u.$                                   ",
"                  . t.c.f.B.5..                                 ",
"                  + y.x.j.a.A.s                                 ",
"              . q / ^ _ p.j.M.5.                                ",
"            @ w.R.R.P.0.U a.x.b.@                               ",
"            0.R.R.R.R.R.8.) x.G.0     * k ` @.@.` g $           ",
"      l M z Y.R.Y.Y.R.R.T.Y j.C.e 6 %.f.c.c.x.c.c.c.d.| o       ",
"  . 0.R.Y.:.T.R.F.q <.R.R.>.$.U @.z.c.z.j.j.f.j.j.j.z.A.7.o     ",
"  Q R.R.T.:.U.R.T./ ( R.R.! j p.c.l.f.j.j.j.j.j.j.j.a.x.K.m     ",
"  0.R.,.Q ( s.R.R.R.R.R.P., C -.p.x.l.f.j.j.j.j.j.j.a.m.J.w     ",
"  ,.R.e.8 0.( I.R.R.R.Y./ v y b k @.z.z.j.j.j.f.a.a.v.L.3.      ",
"  l R.R.P.R.w.l q.r.0.S r [ b 1.X.b I p.l.a.f.j.x.S.J.&.o       ",
"    ~ P.R.F.Q 4 r e w i H ] e K  .1.Y m k.Z.D.C.b.6.a           ",
"      % z , - H H D D H J D w D A ' ..G U *.#.^ E O.W X         ",
"  * # . & - 5 e u B H J D w B H H u # 9 9 I =.t.h.z.V.|         ",
"  w L D 5 - 7 w y d H c 3 c J H N 1 B t > g M.n.z.n.H.T         ",
"  . t x . . 2 w w 5 5 , c J D D A N c L x > { g.g.u.U           ",
"    o #       = > > 5 y y x D H H A 5 3 ' ^ . o @ .             ",
"              > y y y t e w d D D H J 4 r  .o                   ",
"          .   @ e y y y y e e x H D J 5 r } o                   ",
"          .   X 5 y y t y y y e c J c - H L                     ",
"          .     - y y y y y t e y H t 2 D w                     ",
"              . . 2 a y y y y t e c J N 5 .                     ",
"              .     * e y y y y t x J d .                       ",
"                .     O 1 w t y e 9 - .                         ",
"                    .     . o o .                               ",
"                                    .                           ",
"                                                                ",
"                                                                "
};
