/* XPM */
static char *_900963638af49aaf5614557509cdeb2vtnDoswVG7fkWHyr[] = {
/* columns rows colors chars-per-pixel */
"32 32 63 1 ",
"  c black",
". c gray2",
"X c gray4",
"o c gray5",
"O c #101010",
"+ c gray9",
"@ c #1B1B1B",
"# c gray12",
"$ c #222222",
"% c gray14",
"& c gray16",
"* c #2F2F2F",
"= c gray20",
"- c #373737",
"; c #393939",
": c #3C3C3C",
"> c gray25",
", c gray27",
"< c #494949",
"1 c gray31",
"2 c #515151",
"3 c #565656",
"4 c #5B5B5B",
"5 c gray37",
"6 c #626262",
"7 c #646464",
"8 c gray42",
"9 c #6F6F6F",
"0 c gray45",
"q c gray46",
"w c gray48",
"e c gray49",
"r c gray51",
"t c gray53",
"y c gray54",
"u c #8D8D8D",
"i c #939393",
"p c #979797",
"a c #9B9B9B",
"s c gray62",
"d c gray64",
"f c #A4A4A4",
"g c gray67",
"h c #B2B2B2",
"j c #B7B7B7",
"k c gray72",
"l c gray75",
"z c #C3C3C3",
"x c #C5C5C5",
"c c #CACACA",
"v c #CECECE",
"b c #D2D2D2",
"n c #D7D7D7",
"m c gray85",
"M c gainsboro",
"N c #E2E2E2",
"B c #E4E4E4",
"V c #EAEAEA",
"C c #ECECEC",
"Z c gray94",
"A c #F6F6F6",
"S c gray98",
"D c #FEFEFE",
/* pixels */
"                                ",
"            .   .               ",
"           .oXoXoXX..           ",
"        ...XOOO++oOooXX.        ",
"      ..Xooo+##@#+@O++oX.       ",
"      ooO+@+#*&%*$%$#@@ooX.     ",
"     .o++$%$&;--;=*-*%#@Oo.     ",
"     .O@&&==->,,<,;;;*%$#OoX    ",
"   .XoO#&:><>27465321-=*$@Oo    ",
"   .X+##*>3566yweq0821>=*$@X.   ",
"  .Xo@$*->6qtwdddiiy96<>=$+Oo.  ",
"   o@#%-,25ufkzmbcxay86<*&#+o.  ",
" .XoO#*><6eyvBVZZCBvfy41:*$+oX  ",
"  o+%*-:1qyjnZSDDDZVjp93>-%@Oo  ",
" .X+#&;29tpxCSDDDDDCvse6<;&#+o. ",
" .XO#%-<6edMZDDDDDDANge5,-$@X.  ",
" .X+#&;<6rfMZDDDDDDAnsq5,-&#Oo  ",
"  XO#*:<37uvCDDDDDDZNlt7<;%@OX. ",
"  XoO#*:4euxBADDDDABcdy84:*#+o  ",
"  .X+%-,,0wdhNCAAZVcie021;&%@o. ",
"  XO@#%>,47qplMNMnvfy54,:*%$OX. ",
"  ..O$$*:,27qtdfggsiq5:;=$$OXX  ",
"   ooO$%&=,18weetu8941>&$#OOo   ",
"    XO+#$*-,<76578342:-&@OOo    ",
"    XXo+#$%;:,<<1<,::;&$@XX.    ",
"      .oO@%&;==-;=;&=&##Oo      ",
"      .XX+@@&%%&*%=$$##ooX      ",
"        Xoo@@#@##@%@OOOo..      ",
"        ..X+OOO++O@OXoXX        ",
"           X.XXXXXoX..          ",
"          .   ...  .            ",
"                                "
};
