/* XPM */
static char *result[] = {
/* columns rows colors chars-per-pixel */
"32 32 167 2 ",
"   c None",
".  c #060708",
"X  c #070809",
"o  c #0A0B0C",
"O  c #0D0E12",
"+  c #0B1417",
"@  c #121416",
"#  c #16171D",
"$  c #15191C",
"%  c #181818",
"&  c #151621",
"*  c #171B21",
"=  c #1B1D24",
"-  c #1C1E2A",
";  c #1E2028",
":  c #1E292D",
">  c #22242D",
",  c #27282C",
"<  c #2B2C2E",
"1  c #242632",
"2  c #262833",
"3  c #282B36",
"4  c #27293B",
"5  c #2C2E3B",
"6  c #233237",
"7  c #2E313C",
"8  c #323232",
"9  c #30333D",
"0  c #30393F",
"q  c #3D3C3C",
"w  c #333544",
"e  c #363946",
"r  c #35374D",
"t  c #37394A",
"y  c #393B4A",
"u  c #3D3E52",
"i  c #3E3F5A",
"p  c #2E4046",
"a  c #3B474A",
"s  c #3E4A4F",
"d  c #3E4052",
"f  c #374950",
"g  c #384E55",
"h  c #394F58",
"j  c #36515C",
"k  c #3E505A",
"l  c #434343",
"z  c #4A4B4D",
"x  c #414355",
"c  c #44455B",
"v  c #474B5F",
"b  c #4B4D5D",
"n  c #41505C",
"m  c #48585F",
"M  c #535353",
"N  c #464860",
"B  c #4A4C65",
"V  c #445763",
"C  c #415B65",
"Z  c #4F5F65",
"A  c #4E506A",
"S  c #5E5F64",
"D  c #51546E",
"F  c #53586A",
"G  c #58596D",
"H  c #535571",
"J  c #575976",
"K  c #5A5D75",
"L  c #5A5C7B",
"P  c #46636E",
"I  c #49616C",
"U  c #52636C",
"Y  c #5A676C",
"T  c #56696F",
"R  c #516771",
"E  c #506A73",
"W  c #51707E",
"Q  c #656666",
"!  c #656868",
"~  c gray42",
"^  c #6B777C",
"/  c #737575",
"(  c #7A7B7B",
")  c #557987",
"_  c #597A87",
"`  c #5B7D8C",
"'  c #636782",
"]  c #656A82",
"[  c #696E87",
"{  c #627B83",
"}  c #6C708C",
"|  c #657E8A",
" . c #727793",
".. c #747893",
"X. c #797C97",
"o. c #767C98",
"O. c #5E8291",
"+. c #67818C",
"@. c #668E9D",
"#. c #728B94",
"$. c #658FA0",
"%. c #6F99A9",
"&. c #7C96A1",
"*. c #7C99A2",
"=. c #76A7BA",
"-. c #78AAB9",
";. c #7EB2C6",
":. c #848484",
">. c #838C8F",
",. c #9F9F9F",
"<. c #929292",
"1. c #8086A2",
"2. c #8389A5",
"3. c #809CA5",
"4. c #8BAAB6",
"5. c #8CACB8",
"6. c #90ACB5",
"7. c #96B6BF",
"8. c #A9A6A4",
"9. c #ACA8A6",
"0. c #ACACAC",
"q. c #A3A3A2",
"w. c #B7B7B6",
"e. c #BBBBBB",
"r. c #C0C0BE",
"t. c #81B3C6",
"y. c #87BDCF",
"u. c #97BCCA",
"i. c #83BBD1",
"p. c #8CC6DC",
"a. c #8EC8DE",
"s. c #9EC7D5",
"d. c #92C7DD",
"f. c #91C9DF",
"g. c #A3CDDF",
"h. c #8FCAE0",
"j. c #92CBE1",
"k. c #9BCFE2",
"l. c #95D0E7",
"z. c #96D3E9",
"x. c #9CD5EC",
"c. c #9CD9F1",
"v. c #A4D7ED",
"b. c #B3DAEC",
"n. c #A0DAF1",
"m. c #ACDEF2",
"M. c #A9E1F5",
"N. c #A3E1F9",
"B. c #ABE7FD",
"V. c #ADEAFF",
"C. c #BAE6F3",
"Z. c #B1E6FA",
"A. c #B5EBFE",
"S. c #B8E8F9",
"D. c #B2E2F5",
"F. c #DEDEDD",
"G. c #C0EDFC",
"H. c #C4F4FF",
"J. c #C8F5FF",
"K. c #CEFCFF",
"L. c #D0FEFF",
"P. c #ECECEC",
"I. c #E3E3E2",
"U. c #F0ECEB",
"Y. c #F4F4F4",
"T. c #F8F4F3",
"R. c #FEFEFE",
/* pixels */
"                                                                ",
"                                                                ",
"                                  o f :                         ",
"                                $ u.N.z.p                       ",
"                              . 5.B.h.c.t..                     ",
"                              s A.h.l.c.i.+                     ",
"                              4.M.j.p._ ^ / q .                 ",
"                            + b.x.p.U 9.P.R.R.w.@               ",
"        # g ` @.@.` h *     0 H.x.) 8.R.R.R.R.R.0.              ",
"    o +.f.c.c.c.c.c.c.f.%.6 0 C.j.Y T.R.R.Y.Y.R.U.z M a         ",
"  o 7.A.l.j.f.j.j.j.j.z.c.z.@.U $.>.R.R.<.q F.R.R.:.Y.R.0..     ",
"  m K.x.f.j.j.j.j.j.j.j.f.a.c.p.j ! R.R.( / R.R.P.:.Y.R.R.Q     ",
"  0 J.m.p.j.j.j.j.j.j.f.j.c.p.-.C < P.R.R.R.R.R.e.( Q q.R.0.    ",
"    3.L.v.p.f.j.j.f.f.z.z.@.v b y N / Y.R.R.R.I.( 0.8 w.R.,.    ",
"    o &.J.S.x.j.j.a.l.p.I b X.1.b [ t Y 0.r.q.z w.R.P.R.R.l     ",
"        a 6.b.C.D.Z.k.V K 2...K e ] D i w w r 4 ! F.R.P.~       ",
"      X ) +.R _ #.*.G G ..' A H e G J H D H H H - , z %         ",
"      +.B.l.f.;.-.P 9 9 # u H H B 7 D H D B d e 5 - # . & =     ",
"      T A.n.x.N.N.n ; y B 1 N H J c 3 c H d y w 5 = 5 A L r     ",
"        m s.g.s.+.> x L c c A D D J c 1 5 5 w w 2 . . c y       ",
"          . @ o   ^ ' 1 5 A H D D x y y 5 , 1 =       * o       ",
"                o o.y 4 H H D D d w e t y y y >                 ",
"                o } y w L D H x e t y e y y w @   .             ",
"                  L A = c H v e t y t y y y 7 X                 ",
"                  w D 2 t H y y y e y y y a ;     .             ",
"                  . 5 v J x w y y t y y u 3     .               ",
"                    . u L u y y y y u w #     .                 ",
"                      X - w w e t w 2 @     .                   ",
"                            . o o .                             ",
"                        .               .                       ",
"                                                                ",
"                                                                "
};
