/* XPM */
static char *result[] = {
/* columns rows colors chars-per-pixel */
"32 32 211 2 ",
"   c black",
".  c #010000",
"X  c #030101",
"o  c #030201",
"O  c #040201",
"+  c #050301",
"@  c #060301",
"#  c #070301",
"$  c #080301",
"%  c #080401",
"&  c #0B0501",
"*  c #090502",
"=  c #0A0502",
"-  c #0E0703",
";  c #0E0704",
":  c #130802",
">  c #150902",
",  c #100804",
"<  c #160B05",
"1  c #1B0D06",
"2  c #1B0E07",
"3  c #1D0D04",
"4  c #1C0E05",
"5  c #210F04",
"6  c #231005",
"7  c #221006",
"8  c #2F1200",
"9  c #26140A",
"0  c #2E170A",
"q  c #311707",
"w  c #341B0C",
"e  c #361B0C",
"r  c #371C0E",
"t  c #391A08",
"y  c #3D1D0A",
"u  c #3A1E0F",
"i  c #3C1F0E",
"p  c #343233",
"a  c #49230C",
"s  c #4B250E",
"d  c #50280F",
"f  c #53280F",
"g  c #52290F",
"h  c #542A0D",
"j  c #5B2D0F",
"k  c #462310",
"l  c #4C2813",
"z  c #502B14",
"x  c #532E17",
"c  c #592C10",
"v  c #592F16",
"b  c #5E3513",
"n  c #5E3414",
"m  c #57341B",
"M  c #58361E",
"N  c #632D04",
"B  c #6D340B",
"V  c #6E350B",
"C  c #603114",
"Z  c #623315",
"A  c #623417",
"S  c #6C3510",
"D  c #693616",
"F  c #603318",
"G  c #643519",
"H  c #6B381A",
"J  c #6E3918",
"K  c #6D3A19",
"L  c #7B3E15",
"P  c #7E3F14",
"I  c #703A19",
"U  c #703B19",
"Y  c #703C1B",
"T  c #703C1C",
"R  c #763E1C",
"E  c #773F1C",
"W  c #783C1B",
"Q  c #593522",
"!  c #543829",
"~  c #653E24",
"^  c #693C21",
"/  c #693E25",
"(  c #623E33",
")  c #7B4119",
"_  c #7B411B",
"`  c #7F451E",
"'  c #724320",
"]  c #734222",
"[  c #764322",
"{  c #724F39",
"}  c #6D513E",
"|  c #514D4D",
" . c #5A5656",
".. c #8A3823",
"X. c #8E3825",
"o. c #82431C",
"O. c #84461D",
"+. c #954E1E",
"@. c #844821",
"#. c #874A22",
"$. c #864A23",
"%. c #824825",
"&. c #8A4C21",
"*. c #8B4C21",
"=. c #8C4D21",
"-. c #8D4E22",
";. c #8D4D24",
":. c #914D20",
">. c #954E20",
",. c #954F22",
"<. c #8D5127",
"1. c #8C5028",
"2. c #915124",
"3. c #935126",
"4. c #945426",
"5. c #9C5524",
"6. c #9E5424",
"7. c #945228",
"8. c #975428",
"9. c #975429",
"0. c #91552C",
"q. c #985529",
"w. c #9B572A",
"e. c #9D592A",
"r. c #98582E",
"t. c #9D592D",
"y. c #9F5C2F",
"u. c #81593E",
"i. c #975930",
"p. c #915935",
"a. c #935936",
"s. c #A05727",
"d. c #A05A2C",
"f. c #A15B2C",
"g. c #A15B2D",
"h. c #A25C2D",
"j. c #A35D2E",
"k. c #A45C2E",
"l. c #A55D2E",
"z. c #A55E2F",
"x. c #A65F30",
"c. c #A65F31",
"v. c #9E6037",
"b. c #A46031",
"n. c #A86130",
"m. c #A96130",
"M. c #A86031",
"N. c #A86232",
"B. c #AC6231",
"V. c #AD6333",
"C. c #A96437",
"Z. c #AA6436",
"A. c #AD6535",
"S. c #A36338",
"D. c #AB693D",
"F. c #A9693E",
"G. c #A8683F",
"H. c #B06A3E",
"J. c #85634E",
"K. c #88664F",
"L. c #936547",
"P. c #996644",
"I. c #9E6C4A",
"U. c #896751",
"Y. c #A56841",
"T. c #AE6E43",
"R. c #AF6F45",
"E. c #B4764C",
"W. c #B4764D",
"Q. c #B77A52",
"!. c #B97C55",
"~. c #B77F5A",
"^. c #836D60",
"/. c #827F7F",
"(. c #B66662",
"). c #C36C6A",
"_. c #94816F",
"`. c #A18876",
"'. c #949394",
"]. c #B59B88",
"[. c #A19790",
"{. c #A09C9A",
"}. c #B09F93",
"|. c #B1A49B",
" X c #AAA5A3",
".X c #ADACAE",
"XX c #B3ABA6",
"oX c #B8B1AD",
"OX c #B4B4B6",
"+X c #C3AEA1",
"@X c #C6B2A5",
"#X c #C3BEBE",
"$X c #C4BFBC",
"%X c #C5C4B9",
"&X c #C6C6BB",
"*X c #CBC6BF",
"=X c #C8C4C3",
"-X c #CBC8C2",
";X c #C8C8C8",
":X c #D0CFCF",
">X c #CDCFD1",
",X c #D0D1D2",
"<X c #DCD7D5",
"1X c #DBDBDC",
"2X c #DFE2E5",
"3X c gray88",
"4X c #E1E1E2",
"5X c #E7EAEE",
"6X c #E8E8E9",
"7X c #E9EDF1",
"8X c #E9EFF2",
/* pixels */
"                                                                ",
"                                                                ",
"                                                                ",
"                                                                ",
"                                                                ",
"                                                                ",
"                                                                ",
"                              o r ;                             ",
"                            X e a.^ ,                           ",
"                        * w G v.~.G.H -                         ",
"                      1 T t.D.W.R.N.d.v O                       ",
"                    . F x.A.Z.b.k.l.n.7.4                       ",
"                    O h &.*.=.e.x.M.B.) 6                       ",
"                  + l L V P 6.M.z.+.B N J 2                     ",
"                  u ,.I.@X+XP.s.:.K.|.].i.I =                   ",
"                  g p.=X5X7X$X1.L.1X6X8X}.o.:                   ",
"                  8 U.3X|  .4Xu.`.;Xp /.<Xx $                   ",
"                9 Y M ,X.XOX:X] J.2X'.>X Xj z @                 ",
"              < %.Q.<.} oXXX{ >.O.^.#X{.~ S.Y.k                 ",
"              i 9.T.E.r.K / $.q.4.[ Q S y.!.F.R                 ",
"              0 #.f.c.V.0.[.*X%X&X-X_.5.H.C.8.A                 ",
"              % s @.w.j.h.m ( ).(.! ' m.g.3.U 7                 ",
"                & t D ` ;.-.W X..._ 2.#.E f 3                   ",
"                  . > q a c Z b n C d y 5 #                     ",
"                                                                ",
"                                                                ",
"                                                                ",
"                                                                ",
"                                                                ",
"                                                                ",
"                                                                ",
"                                                                "
};
